<?xml version="1.0" encoding="UTF-8"?>
<svg width="1024" height="200" viewBox="0 0 1024 200" xmlns="http://www.w3.org/2000/svg">
  <path d="M60 20L20 60V140L60 180H140L180 140V60L140 20H60Z M100 60L140 100V140L100 180H60V60H100Z" fill="#000000"/>
  <path d="M220 20H300V180H220V20Z" fill="#000000"/>
  <path d="M340 20H420V100H380V180H340V20Z M380 60H420V100H380V60Z" fill="#000000"/>
  <path d="M460 20H540V100H500V180H460V20Z M500 60H540V100H500V60Z" fill="#000000"/>
  <path d="M580 20H660V100H620V180H580V20Z M620 60H660V100H620V60Z" fill="#000000"/>
  <path d="M700 20H780V180H700V20Z M740 60H780V100H740V60Z" fill="#000000"/>
  <path d="M820 20H900V180H820V20Z" fill="#000000"/>
</svg>